
<svg xmlns="http://www.w3.org/2000/svg" width="64" height="64" viewBox="0 0 64 64">
  <rect width="64" height="64" fill="#ffffff" rx="12" ry="12"/>
  <text x="44" y="42" font-family="Arial, sans-serif" font-size="56" font-weight="bold" text-anchor="middle" fill="#df6168">ש</text>
  <text x="26" y="42" font-family="Arial, sans-serif" font-size="56" font-weight="bold" text-anchor="middle" fill="#c26394">ל</text>
  <text x="8" y="42" font-family="Arial, sans-serif" font-size="56" font-weight="bold" text-anchor="middle" fill="#a165c4">י</text>
  <!-- Book icon (moved lower) -->
  <path d="M32 66c0 0-8-1.5-12-1.5s-8 1.5-8 1.5V46c0 0 4-1.5 8-1.5s12 1.5 12 1.5m0 0c0 0 8-1.5 12-1.5s8 1.5 8 1.5v20c0 0-4-1.5-8-1.5s-12 1.5-12 1.5" stroke="#000000" stroke-width="2" fill="none" />
  <path d="M32 46v20" stroke="#000000" stroke-width="2" fill="none" />
</svg>
